<mxfile host="Electron" modified="2024-02-06T19:05:38.119Z" agent="Mozilla/5.0 (Windows NT 10.0; Win64; x64) AppleWebKit/537.36 (KHTML, like Gecko) draw.io/22.1.2 Chrome/114.0.5735.289 Electron/25.9.4 Safari/537.36" etag="TWjchbddeVhy-gLRh-bK" version="22.1.2" type="device">
  <diagram name="Страница — 1" id="nWB5w-IQQtrA6yQI5Z5J">
    <mxGraphModel dx="2580" dy="1523" grid="1" gridSize="10" guides="1" tooltips="1" connect="1" arrows="1" fold="1" page="1" pageScale="1" pageWidth="827" pageHeight="1169" math="0" shadow="0">
      <root>
        <mxCell id="0" />
        <mxCell id="1" parent="0" />
        <mxCell id="NNry0I4TgSfYmMdXEbv9-2" style="edgeStyle=orthogonalEdgeStyle;rounded=0;orthogonalLoop=1;jettySize=auto;html=1;exitX=0.5;exitY=1;exitDx=0;exitDy=0;" edge="1" parent="1" source="NNry0I4TgSfYmMdXEbv9-1">
          <mxGeometry relative="1" as="geometry">
            <mxPoint x="360" y="160" as="targetPoint" />
          </mxGeometry>
        </mxCell>
        <mxCell id="NNry0I4TgSfYmMdXEbv9-1" value="Начало" style="ellipse;whiteSpace=wrap;html=1;fontFamily=Times New Roman;fontSize=24;" vertex="1" parent="1">
          <mxGeometry x="300" y="40" width="120" height="80" as="geometry" />
        </mxCell>
        <mxCell id="NNry0I4TgSfYmMdXEbv9-5" style="edgeStyle=orthogonalEdgeStyle;rounded=0;orthogonalLoop=1;jettySize=auto;html=1;exitX=0.5;exitY=1;exitDx=0;exitDy=0;fontFamily=Times New Roman;fontSize=24;fontColor=default;" edge="1" parent="1" source="NNry0I4TgSfYmMdXEbv9-4">
          <mxGeometry relative="1" as="geometry">
            <mxPoint x="360" y="320" as="targetPoint" />
          </mxGeometry>
        </mxCell>
        <mxCell id="NNry0I4TgSfYmMdXEbv9-4" value="using namespace std;" style="shape=parallelogram;perimeter=parallelogramPerimeter;whiteSpace=wrap;html=1;fixedSize=1;strokeColor=default;align=center;verticalAlign=middle;fontFamily=Times New Roman;fontSize=24;fontColor=default;fillColor=default;" vertex="1" parent="1">
          <mxGeometry x="235" y="160" width="250" height="80" as="geometry" />
        </mxCell>
        <mxCell id="NNry0I4TgSfYmMdXEbv9-17" style="edgeStyle=orthogonalEdgeStyle;rounded=0;orthogonalLoop=1;jettySize=auto;html=1;exitX=0.5;exitY=1;exitDx=0;exitDy=0;fontFamily=Times New Roman;fontSize=24;fontColor=default;" edge="1" parent="1" source="NNry0I4TgSfYmMdXEbv9-6">
          <mxGeometry relative="1" as="geometry">
            <mxPoint x="360" y="440" as="targetPoint" />
          </mxGeometry>
        </mxCell>
        <mxCell id="NNry0I4TgSfYmMdXEbv9-6" value="int main(){" style="ellipse;whiteSpace=wrap;html=1;fontFamily=Times New Roman;fontSize=24;" vertex="1" parent="1">
          <mxGeometry x="285" y="320" width="150" height="80" as="geometry" />
        </mxCell>
        <mxCell id="NNry0I4TgSfYmMdXEbv9-7" value="" style="endArrow=none;html=1;rounded=0;fontFamily=Times New Roman;fontSize=24;fontColor=default;" edge="1" parent="1">
          <mxGeometry width="50" height="50" relative="1" as="geometry">
            <mxPoint x="360" y="280" as="sourcePoint" />
            <mxPoint x="560" y="280" as="targetPoint" />
          </mxGeometry>
        </mxCell>
        <mxCell id="NNry0I4TgSfYmMdXEbv9-8" value="" style="endArrow=none;html=1;rounded=0;fontFamily=Times New Roman;fontSize=24;fontColor=default;" edge="1" parent="1">
          <mxGeometry width="50" height="50" relative="1" as="geometry">
            <mxPoint x="560" y="400" as="sourcePoint" />
            <mxPoint x="560" y="160" as="targetPoint" />
          </mxGeometry>
        </mxCell>
        <mxCell id="NNry0I4TgSfYmMdXEbv9-9" value="" style="endArrow=none;html=1;rounded=0;fontFamily=Times New Roman;fontSize=24;fontColor=default;" edge="1" parent="1">
          <mxGeometry width="50" height="50" relative="1" as="geometry">
            <mxPoint x="560" y="160" as="sourcePoint" />
            <mxPoint x="600" y="160" as="targetPoint" />
          </mxGeometry>
        </mxCell>
        <mxCell id="NNry0I4TgSfYmMdXEbv9-10" value="" style="endArrow=none;html=1;rounded=0;fontFamily=Times New Roman;fontSize=24;fontColor=default;" edge="1" parent="1">
          <mxGeometry width="50" height="50" relative="1" as="geometry">
            <mxPoint x="560" y="400" as="sourcePoint" />
            <mxPoint x="600" y="400" as="targetPoint" />
          </mxGeometry>
        </mxCell>
        <mxCell id="NNry0I4TgSfYmMdXEbv9-11" value="#include &amp;lt;iostream&amp;gt;;" style="text;html=1;strokeColor=none;fillColor=none;align=center;verticalAlign=middle;whiteSpace=wrap;rounded=0;fontSize=24;fontFamily=Times New Roman;fontColor=default;" vertex="1" parent="1">
          <mxGeometry x="560" y="170" width="230" height="30" as="geometry" />
        </mxCell>
        <mxCell id="NNry0I4TgSfYmMdXEbv9-13" value="const int n = 5;" style="text;html=1;align=center;verticalAlign=middle;resizable=0;points=[];autosize=1;strokeColor=none;fillColor=none;fontSize=24;fontFamily=Times New Roman;fontColor=default;" vertex="1" parent="1">
          <mxGeometry x="560" y="200" width="170" height="40" as="geometry" />
        </mxCell>
        <mxCell id="NNry0I4TgSfYmMdXEbv9-14" value="srand(time(NULL));" style="text;html=1;align=center;verticalAlign=middle;resizable=0;points=[];autosize=1;strokeColor=none;fillColor=none;fontSize=24;fontFamily=Times New Roman;fontColor=default;" vertex="1" parent="1">
          <mxGeometry x="560" y="240" width="220" height="40" as="geometry" />
        </mxCell>
        <mxCell id="NNry0I4TgSfYmMdXEbv9-15" value="int a[n][n]; int a1[n];" style="text;html=1;align=center;verticalAlign=middle;resizable=0;points=[];autosize=1;strokeColor=none;fillColor=none;fontSize=24;fontFamily=Times New Roman;fontColor=default;" vertex="1" parent="1">
          <mxGeometry x="560" y="280" width="220" height="40" as="geometry" />
        </mxCell>
        <mxCell id="NNry0I4TgSfYmMdXEbv9-16" value="int count = 0;" style="text;html=1;align=center;verticalAlign=middle;resizable=0;points=[];autosize=1;strokeColor=none;fillColor=none;fontSize=24;fontFamily=Times New Roman;fontColor=default;" vertex="1" parent="1">
          <mxGeometry x="560" y="320" width="150" height="40" as="geometry" />
        </mxCell>
        <mxCell id="NNry0I4TgSfYmMdXEbv9-19" style="edgeStyle=orthogonalEdgeStyle;rounded=0;orthogonalLoop=1;jettySize=auto;html=1;exitX=0.5;exitY=1;exitDx=0;exitDy=0;fontFamily=Times New Roman;fontSize=24;fontColor=default;entryX=0.5;entryY=0;entryDx=0;entryDy=0;" edge="1" parent="1" source="NNry0I4TgSfYmMdXEbv9-18" target="NNry0I4TgSfYmMdXEbv9-20">
          <mxGeometry relative="1" as="geometry">
            <mxPoint x="360" y="580" as="targetPoint" />
          </mxGeometry>
        </mxCell>
        <mxCell id="NNry0I4TgSfYmMdXEbv9-28" style="edgeStyle=orthogonalEdgeStyle;rounded=0;orthogonalLoop=1;jettySize=auto;html=1;exitX=1;exitY=0.5;exitDx=0;exitDy=0;fontFamily=Times New Roman;fontSize=24;fontColor=default;" edge="1" parent="1" source="NNry0I4TgSfYmMdXEbv9-18">
          <mxGeometry relative="1" as="geometry">
            <mxPoint x="1000" y="760" as="targetPoint" />
            <Array as="points">
              <mxPoint x="1000" y="480" />
              <mxPoint x="1000" y="760" />
            </Array>
          </mxGeometry>
        </mxCell>
        <mxCell id="NNry0I4TgSfYmMdXEbv9-18" value="for (int i = 0; i &amp;lt; n; i ++){" style="shape=hexagon;perimeter=hexagonPerimeter2;whiteSpace=wrap;html=1;fixedSize=1;strokeColor=default;align=center;verticalAlign=middle;fontFamily=Times New Roman;fontSize=24;fontColor=default;fillColor=default;" vertex="1" parent="1">
          <mxGeometry x="220" y="440" width="280" height="80" as="geometry" />
        </mxCell>
        <mxCell id="NNry0I4TgSfYmMdXEbv9-22" style="edgeStyle=orthogonalEdgeStyle;rounded=0;orthogonalLoop=1;jettySize=auto;html=1;exitX=0.5;exitY=1;exitDx=0;exitDy=0;fontFamily=Times New Roman;fontSize=24;fontColor=default;" edge="1" parent="1" source="NNry0I4TgSfYmMdXEbv9-20" target="NNry0I4TgSfYmMdXEbv9-23">
          <mxGeometry relative="1" as="geometry">
            <mxPoint x="360.28571428571445" y="720" as="targetPoint" />
          </mxGeometry>
        </mxCell>
        <mxCell id="NNry0I4TgSfYmMdXEbv9-25" style="edgeStyle=orthogonalEdgeStyle;rounded=0;orthogonalLoop=1;jettySize=auto;html=1;exitX=1;exitY=0.5;exitDx=0;exitDy=0;entryX=0;entryY=0.5;entryDx=0;entryDy=0;fontFamily=Times New Roman;fontSize=24;fontColor=default;" edge="1" parent="1" source="NNry0I4TgSfYmMdXEbv9-20" target="NNry0I4TgSfYmMdXEbv9-18">
          <mxGeometry relative="1" as="geometry">
            <Array as="points">
              <mxPoint x="600" y="625" />
              <mxPoint x="600" y="880" />
              <mxPoint x="160" y="880" />
              <mxPoint x="160" y="480" />
            </Array>
          </mxGeometry>
        </mxCell>
        <mxCell id="NNry0I4TgSfYmMdXEbv9-20" value="for (int j = 0; j &amp;lt; n; j ++){" style="shape=hexagon;perimeter=hexagonPerimeter2;whiteSpace=wrap;html=1;fixedSize=1;strokeColor=default;align=center;verticalAlign=middle;fontFamily=Times New Roman;fontSize=24;fontColor=default;fillColor=default;" vertex="1" parent="1">
          <mxGeometry x="220" y="585" width="280" height="80" as="geometry" />
        </mxCell>
        <mxCell id="NNry0I4TgSfYmMdXEbv9-21" value="True" style="text;html=1;align=center;verticalAlign=middle;resizable=0;points=[];autosize=1;strokeColor=none;fillColor=none;fontSize=24;fontFamily=Times New Roman;fontColor=default;" vertex="1" parent="1">
          <mxGeometry x="360" y="533" width="70" height="40" as="geometry" />
        </mxCell>
        <mxCell id="NNry0I4TgSfYmMdXEbv9-24" style="edgeStyle=orthogonalEdgeStyle;rounded=0;orthogonalLoop=1;jettySize=auto;html=1;exitX=0.5;exitY=1;exitDx=0;exitDy=0;entryX=0;entryY=0.5;entryDx=0;entryDy=0;fontFamily=Times New Roman;fontSize=24;fontColor=default;" edge="1" parent="1" source="NNry0I4TgSfYmMdXEbv9-23" target="NNry0I4TgSfYmMdXEbv9-20">
          <mxGeometry relative="1" as="geometry">
            <Array as="points">
              <mxPoint x="360" y="830" />
              <mxPoint x="200" y="830" />
              <mxPoint x="200" y="625" />
            </Array>
          </mxGeometry>
        </mxCell>
        <mxCell id="NNry0I4TgSfYmMdXEbv9-23" value="a[i][j] = rand() % 100 = 1;" style="rounded=0;whiteSpace=wrap;html=1;strokeColor=default;align=center;verticalAlign=middle;fontFamily=Times New Roman;fontSize=24;fontColor=default;fillColor=default;" vertex="1" parent="1">
          <mxGeometry x="215" y="720" width="290" height="90" as="geometry" />
        </mxCell>
        <mxCell id="NNry0I4TgSfYmMdXEbv9-26" value="True" style="text;html=1;align=center;verticalAlign=middle;resizable=0;points=[];autosize=1;strokeColor=none;fillColor=none;fontSize=24;fontFamily=Times New Roman;fontColor=default;" vertex="1" parent="1">
          <mxGeometry x="360" y="670" width="70" height="40" as="geometry" />
        </mxCell>
        <mxCell id="NNry0I4TgSfYmMdXEbv9-27" value="False" style="text;html=1;align=center;verticalAlign=middle;resizable=0;points=[];autosize=1;strokeColor=none;fillColor=none;fontSize=24;fontFamily=Times New Roman;fontColor=default;" vertex="1" parent="1">
          <mxGeometry x="510" y="580" width="70" height="40" as="geometry" />
        </mxCell>
        <mxCell id="NNry0I4TgSfYmMdXEbv9-29" value="False" style="text;html=1;align=center;verticalAlign=middle;resizable=0;points=[];autosize=1;strokeColor=none;fillColor=none;fontSize=24;fontFamily=Times New Roman;fontColor=default;" vertex="1" parent="1">
          <mxGeometry x="510" y="430" width="70" height="40" as="geometry" />
        </mxCell>
        <mxCell id="NNry0I4TgSfYmMdXEbv9-31" style="edgeStyle=orthogonalEdgeStyle;rounded=0;orthogonalLoop=1;jettySize=auto;html=1;exitX=0.5;exitY=1;exitDx=0;exitDy=0;fontFamily=Times New Roman;fontSize=24;fontColor=default;" edge="1" parent="1" source="NNry0I4TgSfYmMdXEbv9-30">
          <mxGeometry relative="1" as="geometry">
            <mxPoint x="1000.2857142857142" y="920" as="targetPoint" />
          </mxGeometry>
        </mxCell>
        <mxCell id="NNry0I4TgSfYmMdXEbv9-40" style="edgeStyle=orthogonalEdgeStyle;rounded=0;orthogonalLoop=1;jettySize=auto;html=1;exitX=1;exitY=0.5;exitDx=0;exitDy=0;fontFamily=Times New Roman;fontSize=24;fontColor=default;entryX=0.5;entryY=0;entryDx=0;entryDy=0;" edge="1" parent="1" source="NNry0I4TgSfYmMdXEbv9-30" target="NNry0I4TgSfYmMdXEbv9-41">
          <mxGeometry relative="1" as="geometry">
            <mxPoint x="1680" y="880" as="targetPoint" />
            <Array as="points">
              <mxPoint x="2000" y="800" />
            </Array>
          </mxGeometry>
        </mxCell>
        <mxCell id="NNry0I4TgSfYmMdXEbv9-30" value="for (int i = 0; i &amp;lt; n; i ++){" style="shape=hexagon;perimeter=hexagonPerimeter2;whiteSpace=wrap;html=1;fixedSize=1;strokeColor=default;align=center;verticalAlign=middle;fontFamily=Times New Roman;fontSize=24;fontColor=default;fillColor=default;" vertex="1" parent="1">
          <mxGeometry x="860" y="760" width="280" height="80" as="geometry" />
        </mxCell>
        <mxCell id="NNry0I4TgSfYmMdXEbv9-34" style="edgeStyle=orthogonalEdgeStyle;rounded=0;orthogonalLoop=1;jettySize=auto;html=1;exitX=0.5;exitY=1;exitDx=0;exitDy=0;fontFamily=Times New Roman;fontSize=24;fontColor=default;" edge="1" parent="1" source="NNry0I4TgSfYmMdXEbv9-32">
          <mxGeometry relative="1" as="geometry">
            <mxPoint x="1000.2857142857142" y="1080.0000000000002" as="targetPoint" />
          </mxGeometry>
        </mxCell>
        <mxCell id="NNry0I4TgSfYmMdXEbv9-38" style="edgeStyle=orthogonalEdgeStyle;rounded=0;orthogonalLoop=1;jettySize=auto;html=1;exitX=1;exitY=0.5;exitDx=0;exitDy=0;entryX=0;entryY=0.5;entryDx=0;entryDy=0;fontFamily=Times New Roman;fontSize=24;fontColor=default;" edge="1" parent="1" source="NNry0I4TgSfYmMdXEbv9-32" target="NNry0I4TgSfYmMdXEbv9-30">
          <mxGeometry relative="1" as="geometry">
            <Array as="points">
              <mxPoint x="1230" y="960" />
              <mxPoint x="1230" y="1240" />
              <mxPoint x="760" y="1240" />
              <mxPoint x="760" y="800" />
            </Array>
          </mxGeometry>
        </mxCell>
        <mxCell id="NNry0I4TgSfYmMdXEbv9-32" value="for (int j = 0; j &amp;lt; n; j ++){" style="shape=hexagon;perimeter=hexagonPerimeter2;whiteSpace=wrap;html=1;fixedSize=1;strokeColor=default;align=center;verticalAlign=middle;fontFamily=Times New Roman;fontSize=24;fontColor=default;fillColor=default;" vertex="1" parent="1">
          <mxGeometry x="860" y="920" width="280" height="80" as="geometry" />
        </mxCell>
        <mxCell id="NNry0I4TgSfYmMdXEbv9-33" value="True" style="text;html=1;align=center;verticalAlign=middle;resizable=0;points=[];autosize=1;strokeColor=none;fillColor=none;fontSize=24;fontFamily=Times New Roman;fontColor=default;" vertex="1" parent="1">
          <mxGeometry x="1000" y="860" width="70" height="40" as="geometry" />
        </mxCell>
        <mxCell id="NNry0I4TgSfYmMdXEbv9-35" value="True" style="text;html=1;align=center;verticalAlign=middle;resizable=0;points=[];autosize=1;strokeColor=none;fillColor=none;fontSize=24;fontFamily=Times New Roman;fontColor=default;" vertex="1" parent="1">
          <mxGeometry x="1000" y="1020" width="70" height="40" as="geometry" />
        </mxCell>
        <mxCell id="NNry0I4TgSfYmMdXEbv9-37" style="edgeStyle=orthogonalEdgeStyle;rounded=0;orthogonalLoop=1;jettySize=auto;html=1;exitX=0.5;exitY=1;exitDx=0;exitDy=0;entryX=0;entryY=0.5;entryDx=0;entryDy=0;fontFamily=Times New Roman;fontSize=24;fontColor=default;" edge="1" parent="1" source="NNry0I4TgSfYmMdXEbv9-36" target="NNry0I4TgSfYmMdXEbv9-32">
          <mxGeometry relative="1" as="geometry">
            <Array as="points">
              <mxPoint x="1000" y="1200" />
              <mxPoint x="840" y="1200" />
              <mxPoint x="840" y="960" />
            </Array>
          </mxGeometry>
        </mxCell>
        <mxCell id="NNry0I4TgSfYmMdXEbv9-36" value="cout &amp;lt;&amp;lt; a[i][j] &amp;lt;&amp;lt; &quot; &quot;;" style="shape=parallelogram;perimeter=parallelogramPerimeter;whiteSpace=wrap;html=1;fixedSize=1;strokeColor=default;align=center;verticalAlign=middle;fontFamily=Times New Roman;fontSize=24;fontColor=default;fillColor=default;" vertex="1" parent="1">
          <mxGeometry x="875" y="1080" width="250" height="80" as="geometry" />
        </mxCell>
        <mxCell id="NNry0I4TgSfYmMdXEbv9-39" value="False" style="text;html=1;align=center;verticalAlign=middle;resizable=0;points=[];autosize=1;strokeColor=none;fillColor=none;fontSize=24;fontFamily=Times New Roman;fontColor=default;" vertex="1" parent="1">
          <mxGeometry x="1150" y="910" width="70" height="40" as="geometry" />
        </mxCell>
        <mxCell id="NNry0I4TgSfYmMdXEbv9-47" style="edgeStyle=orthogonalEdgeStyle;rounded=0;orthogonalLoop=1;jettySize=auto;html=1;exitX=0.5;exitY=1;exitDx=0;exitDy=0;fontFamily=Times New Roman;fontSize=24;fontColor=default;entryX=0.5;entryY=0;entryDx=0;entryDy=0;" edge="1" parent="1" source="NNry0I4TgSfYmMdXEbv9-41" target="NNry0I4TgSfYmMdXEbv9-48">
          <mxGeometry relative="1" as="geometry">
            <mxPoint x="1680" y="1040" as="targetPoint" />
          </mxGeometry>
        </mxCell>
        <mxCell id="NNry0I4TgSfYmMdXEbv9-41" value="cout &amp;lt;&amp;lt; endl;" style="shape=parallelogram;perimeter=parallelogramPerimeter;whiteSpace=wrap;html=1;fixedSize=1;strokeColor=default;align=center;verticalAlign=middle;fontFamily=Times New Roman;fontSize=24;fontColor=default;fillColor=default;" vertex="1" parent="1">
          <mxGeometry x="1870" y="890" width="260" height="80" as="geometry" />
        </mxCell>
        <mxCell id="NNry0I4TgSfYmMdXEbv9-42" value="False" style="text;html=1;align=center;verticalAlign=middle;resizable=0;points=[];autosize=1;strokeColor=none;fillColor=none;fontSize=24;fontFamily=Times New Roman;fontColor=default;" vertex="1" parent="1">
          <mxGeometry x="1150" y="745" width="70" height="40" as="geometry" />
        </mxCell>
        <mxCell id="NNry0I4TgSfYmMdXEbv9-43" value="}" style="text;html=1;align=center;verticalAlign=middle;resizable=0;points=[];autosize=1;strokeColor=none;fillColor=none;fontSize=24;fontFamily=Times New Roman;fontColor=default;" vertex="1" parent="1">
          <mxGeometry x="350" y="840" width="40" height="40" as="geometry" />
        </mxCell>
        <mxCell id="NNry0I4TgSfYmMdXEbv9-44" value="}" style="text;html=1;align=center;verticalAlign=middle;resizable=0;points=[];autosize=1;strokeColor=none;fillColor=none;fontSize=24;fontFamily=Times New Roman;fontColor=default;" vertex="1" parent="1">
          <mxGeometry x="1010" y="705" width="40" height="40" as="geometry" />
        </mxCell>
        <mxCell id="NNry0I4TgSfYmMdXEbv9-45" value="}" style="text;html=1;align=center;verticalAlign=middle;resizable=0;points=[];autosize=1;strokeColor=none;fillColor=none;fontSize=24;fontFamily=Times New Roman;fontColor=default;" vertex="1" parent="1">
          <mxGeometry x="980" y="1200" width="40" height="40" as="geometry" />
        </mxCell>
        <mxCell id="NNry0I4TgSfYmMdXEbv9-46" value="}" style="text;html=1;align=center;verticalAlign=middle;resizable=0;points=[];autosize=1;strokeColor=none;fillColor=none;fontSize=24;fontFamily=Times New Roman;fontColor=default;" vertex="1" parent="1">
          <mxGeometry x="2000" y="840" width="40" height="40" as="geometry" />
        </mxCell>
        <mxCell id="NNry0I4TgSfYmMdXEbv9-49" style="edgeStyle=orthogonalEdgeStyle;rounded=0;orthogonalLoop=1;jettySize=auto;html=1;exitX=0.5;exitY=1;exitDx=0;exitDy=0;fontFamily=Times New Roman;fontSize=24;fontColor=default;entryX=0.5;entryY=0;entryDx=0;entryDy=0;" edge="1" parent="1" source="NNry0I4TgSfYmMdXEbv9-48" target="NNry0I4TgSfYmMdXEbv9-52">
          <mxGeometry relative="1" as="geometry">
            <mxPoint x="1680" y="1210" as="targetPoint" />
          </mxGeometry>
        </mxCell>
        <mxCell id="NNry0I4TgSfYmMdXEbv9-68" style="edgeStyle=orthogonalEdgeStyle;rounded=0;orthogonalLoop=1;jettySize=auto;html=1;exitX=1;exitY=0.5;exitDx=0;exitDy=0;fontFamily=Times New Roman;fontSize=24;fontColor=default;" edge="1" parent="1" source="NNry0I4TgSfYmMdXEbv9-48">
          <mxGeometry relative="1" as="geometry">
            <mxPoint x="3080" y="1280" as="targetPoint" />
            <Array as="points">
              <mxPoint x="3080" y="1080" />
              <mxPoint x="3080" y="1280" />
            </Array>
          </mxGeometry>
        </mxCell>
        <mxCell id="NNry0I4TgSfYmMdXEbv9-48" value="for (int i = 0; i &amp;lt; n; i ++){" style="shape=hexagon;perimeter=hexagonPerimeter2;whiteSpace=wrap;html=1;fixedSize=1;strokeColor=default;align=center;verticalAlign=middle;fontFamily=Times New Roman;fontSize=24;fontColor=default;fillColor=default;" vertex="1" parent="1">
          <mxGeometry x="1860" y="1040" width="280" height="80" as="geometry" />
        </mxCell>
        <mxCell id="NNry0I4TgSfYmMdXEbv9-51" value="True" style="text;html=1;align=center;verticalAlign=middle;resizable=0;points=[];autosize=1;strokeColor=none;fillColor=none;fontSize=24;fontFamily=Times New Roman;fontColor=default;" vertex="1" parent="1">
          <mxGeometry x="2000" y="1150" width="70" height="40" as="geometry" />
        </mxCell>
        <mxCell id="NNry0I4TgSfYmMdXEbv9-53" style="edgeStyle=orthogonalEdgeStyle;rounded=0;orthogonalLoop=1;jettySize=auto;html=1;exitX=0.5;exitY=1;exitDx=0;exitDy=0;fontFamily=Times New Roman;fontSize=24;fontColor=default;entryX=0.5;entryY=0;entryDx=0;entryDy=0;" edge="1" parent="1" source="NNry0I4TgSfYmMdXEbv9-52" target="NNry0I4TgSfYmMdXEbv9-55">
          <mxGeometry relative="1" as="geometry">
            <mxPoint x="1680" y="1360" as="targetPoint" />
          </mxGeometry>
        </mxCell>
        <mxCell id="NNry0I4TgSfYmMdXEbv9-65" style="edgeStyle=orthogonalEdgeStyle;rounded=0;orthogonalLoop=1;jettySize=auto;html=1;exitX=1;exitY=0.5;exitDx=0;exitDy=0;entryX=0;entryY=0.5;entryDx=0;entryDy=0;fontFamily=Times New Roman;fontSize=24;fontColor=default;" edge="1" parent="1" source="NNry0I4TgSfYmMdXEbv9-52" target="NNry0I4TgSfYmMdXEbv9-48">
          <mxGeometry relative="1" as="geometry">
            <Array as="points">
              <mxPoint x="2400" y="1260" />
              <mxPoint x="2400" y="1960" />
              <mxPoint x="1440" y="1960" />
              <mxPoint x="1440" y="1080" />
            </Array>
          </mxGeometry>
        </mxCell>
        <mxCell id="NNry0I4TgSfYmMdXEbv9-52" value="for (int j = 0; j &amp;lt; n; j ++){" style="shape=hexagon;perimeter=hexagonPerimeter2;whiteSpace=wrap;html=1;fixedSize=1;strokeColor=default;align=center;verticalAlign=middle;fontFamily=Times New Roman;fontSize=24;fontColor=default;fillColor=default;" vertex="1" parent="1">
          <mxGeometry x="1860" y="1220" width="280" height="80" as="geometry" />
        </mxCell>
        <mxCell id="NNry0I4TgSfYmMdXEbv9-54" value="True" style="text;html=1;align=center;verticalAlign=middle;resizable=0;points=[];autosize=1;strokeColor=none;fillColor=none;fontSize=24;fontFamily=Times New Roman;fontColor=default;" vertex="1" parent="1">
          <mxGeometry x="2010" y="1330" width="70" height="40" as="geometry" />
        </mxCell>
        <mxCell id="NNry0I4TgSfYmMdXEbv9-60" style="edgeStyle=orthogonalEdgeStyle;rounded=0;orthogonalLoop=1;jettySize=auto;html=1;exitX=1;exitY=0.5;exitDx=0;exitDy=0;fontFamily=Times New Roman;fontSize=24;fontColor=default;verticalAlign=middle;entryX=0.5;entryY=1;entryDx=0;entryDy=0;endArrow=none;endFill=0;" edge="1" parent="1" source="NNry0I4TgSfYmMdXEbv9-55" target="NNry0I4TgSfYmMdXEbv9-58">
          <mxGeometry relative="1" as="geometry">
            <mxPoint x="1460" y="1989.91" as="targetPoint" />
            <mxPoint x="2125" y="1819.91" as="sourcePoint" />
            <Array as="points">
              <mxPoint x="2320" y="1480" />
              <mxPoint x="2320" y="1800" />
              <mxPoint x="1800" y="1800" />
            </Array>
          </mxGeometry>
        </mxCell>
        <mxCell id="NNry0I4TgSfYmMdXEbv9-55" value="if (i == j){" style="rhombus;whiteSpace=wrap;html=1;strokeColor=default;align=center;verticalAlign=middle;fontFamily=Times New Roman;fontSize=24;fontColor=default;fillColor=default;" vertex="1" parent="1">
          <mxGeometry x="1885" y="1400" width="230" height="160" as="geometry" />
        </mxCell>
        <mxCell id="NNry0I4TgSfYmMdXEbv9-57" value="True" style="text;html=1;align=center;verticalAlign=middle;resizable=0;points=[];autosize=1;strokeColor=none;fillColor=none;fontSize=24;fontFamily=Times New Roman;fontColor=default;" vertex="1" parent="1">
          <mxGeometry x="1815" y="1440" width="70" height="40" as="geometry" />
        </mxCell>
        <mxCell id="NNry0I4TgSfYmMdXEbv9-58" value="a[i][j] = rand() % 100 = 1;" style="rounded=0;whiteSpace=wrap;html=1;strokeColor=default;align=center;verticalAlign=middle;fontFamily=Times New Roman;fontSize=24;fontColor=default;fillColor=default;" vertex="1" parent="1">
          <mxGeometry x="1650" y="1600" width="300" height="90" as="geometry" />
        </mxCell>
        <mxCell id="NNry0I4TgSfYmMdXEbv9-59" style="edgeStyle=orthogonalEdgeStyle;rounded=0;orthogonalLoop=1;jettySize=auto;html=1;exitX=0;exitY=0.5;exitDx=0;exitDy=0;entryX=0.5;entryY=0;entryDx=0;entryDy=0;fontFamily=Times New Roman;fontSize=24;fontColor=default;" edge="1" parent="1" source="NNry0I4TgSfYmMdXEbv9-55" target="NNry0I4TgSfYmMdXEbv9-58">
          <mxGeometry relative="1" as="geometry" />
        </mxCell>
        <mxCell id="NNry0I4TgSfYmMdXEbv9-61" value="}" style="text;html=1;align=center;verticalAlign=middle;resizable=0;points=[];autosize=1;strokeColor=none;fillColor=none;fontSize=24;fontFamily=Times New Roman;fontColor=default;" vertex="1" parent="1">
          <mxGeometry x="1980" y="1750" width="40" height="40" as="geometry" />
        </mxCell>
        <mxCell id="NNry0I4TgSfYmMdXEbv9-62" style="edgeStyle=orthogonalEdgeStyle;rounded=0;orthogonalLoop=1;jettySize=auto;html=1;exitX=0;exitY=0.5;exitDx=0;exitDy=0;fontFamily=Times New Roman;fontSize=24;fontColor=default;endArrow=none;endFill=0;startArrow=classic;startFill=1;" edge="1" parent="1">
          <mxGeometry relative="1" as="geometry">
            <mxPoint x="1860" y="1269.91" as="sourcePoint" />
            <mxPoint x="2000" y="1800" as="targetPoint" />
            <Array as="points">
              <mxPoint x="1860" y="1260" />
              <mxPoint x="1560" y="1260" />
              <mxPoint x="1560" y="1880" />
              <mxPoint x="2000" y="1880" />
            </Array>
          </mxGeometry>
        </mxCell>
        <mxCell id="NNry0I4TgSfYmMdXEbv9-64" value="False" style="text;html=1;align=center;verticalAlign=middle;resizable=0;points=[];autosize=1;strokeColor=none;fillColor=none;fontSize=24;fontFamily=Times New Roman;fontColor=default;" vertex="1" parent="1">
          <mxGeometry x="2180" y="1430" width="70" height="40" as="geometry" />
        </mxCell>
        <mxCell id="NNry0I4TgSfYmMdXEbv9-66" value="False" style="text;html=1;align=center;verticalAlign=middle;resizable=0;points=[];autosize=1;strokeColor=none;fillColor=none;fontSize=24;fontFamily=Times New Roman;fontColor=default;" vertex="1" parent="1">
          <mxGeometry x="2230" y="1210" width="70" height="40" as="geometry" />
        </mxCell>
        <mxCell id="NNry0I4TgSfYmMdXEbv9-67" value="}" style="text;html=1;align=center;verticalAlign=middle;resizable=0;points=[];autosize=1;strokeColor=none;fillColor=none;fontSize=24;fontFamily=Times New Roman;fontColor=default;" vertex="1" parent="1">
          <mxGeometry x="1980" y="1910" width="40" height="40" as="geometry" />
        </mxCell>
        <mxCell id="NNry0I4TgSfYmMdXEbv9-69" value="False" style="text;html=1;align=center;verticalAlign=middle;resizable=0;points=[];autosize=1;strokeColor=none;fillColor=none;fontSize=24;fontFamily=Times New Roman;fontColor=default;" vertex="1" parent="1">
          <mxGeometry x="2230" y="1020" width="70" height="40" as="geometry" />
        </mxCell>
        <mxCell id="NNry0I4TgSfYmMdXEbv9-71" style="edgeStyle=orthogonalEdgeStyle;rounded=0;orthogonalLoop=1;jettySize=auto;html=1;exitX=0.5;exitY=1;exitDx=0;exitDy=0;fontFamily=Times New Roman;fontSize=24;fontColor=default;" edge="1" parent="1" source="NNry0I4TgSfYmMdXEbv9-70">
          <mxGeometry relative="1" as="geometry">
            <mxPoint x="3080" y="1440" as="targetPoint" />
          </mxGeometry>
        </mxCell>
        <mxCell id="NNry0I4TgSfYmMdXEbv9-102" style="edgeStyle=orthogonalEdgeStyle;rounded=0;orthogonalLoop=1;jettySize=auto;html=1;exitX=1;exitY=0.5;exitDx=0;exitDy=0;fontFamily=Times New Roman;fontSize=24;fontColor=default;" edge="1" parent="1" source="NNry0I4TgSfYmMdXEbv9-70">
          <mxGeometry relative="1" as="geometry">
            <mxPoint x="3840" y="1520" as="targetPoint" />
          </mxGeometry>
        </mxCell>
        <mxCell id="NNry0I4TgSfYmMdXEbv9-70" value="for (int i = 0; i &amp;lt; n; i ++){" style="shape=hexagon;perimeter=hexagonPerimeter2;whiteSpace=wrap;html=1;fixedSize=1;strokeColor=default;align=center;verticalAlign=middle;fontFamily=Times New Roman;fontSize=24;fontColor=default;fillColor=default;" vertex="1" parent="1">
          <mxGeometry x="2940" y="1280" width="280" height="80" as="geometry" />
        </mxCell>
        <mxCell id="NNry0I4TgSfYmMdXEbv9-74" style="edgeStyle=orthogonalEdgeStyle;rounded=0;orthogonalLoop=1;jettySize=auto;html=1;exitX=0.5;exitY=1;exitDx=0;exitDy=0;fontFamily=Times New Roman;fontSize=24;fontColor=default;" edge="1" parent="1" source="NNry0I4TgSfYmMdXEbv9-72">
          <mxGeometry relative="1" as="geometry">
            <mxPoint x="3080" y="1600" as="targetPoint" />
          </mxGeometry>
        </mxCell>
        <mxCell id="NNry0I4TgSfYmMdXEbv9-98" style="edgeStyle=orthogonalEdgeStyle;rounded=0;orthogonalLoop=1;jettySize=auto;html=1;exitX=1;exitY=0.5;exitDx=0;exitDy=0;entryX=0;entryY=0.5;entryDx=0;entryDy=0;fontFamily=Times New Roman;fontSize=24;fontColor=default;" edge="1" parent="1" source="NNry0I4TgSfYmMdXEbv9-72" target="NNry0I4TgSfYmMdXEbv9-70">
          <mxGeometry relative="1" as="geometry">
            <Array as="points">
              <mxPoint x="3440" y="1480" />
              <mxPoint x="3440" y="2730" />
              <mxPoint x="2430" y="2730" />
              <mxPoint x="2430" y="1320" />
            </Array>
          </mxGeometry>
        </mxCell>
        <mxCell id="NNry0I4TgSfYmMdXEbv9-72" value="for (int j = 0; j &amp;lt; n; j ++){" style="shape=hexagon;perimeter=hexagonPerimeter2;whiteSpace=wrap;html=1;fixedSize=1;strokeColor=default;align=center;verticalAlign=middle;fontFamily=Times New Roman;fontSize=24;fontColor=default;fillColor=default;" vertex="1" parent="1">
          <mxGeometry x="2940" y="1440" width="280" height="80" as="geometry" />
        </mxCell>
        <mxCell id="NNry0I4TgSfYmMdXEbv9-73" value="True" style="text;html=1;align=center;verticalAlign=middle;resizable=0;points=[];autosize=1;strokeColor=none;fillColor=none;fontSize=24;fontFamily=Times New Roman;fontColor=default;" vertex="1" parent="1">
          <mxGeometry x="3080" y="1380" width="70" height="40" as="geometry" />
        </mxCell>
        <mxCell id="NNry0I4TgSfYmMdXEbv9-75" value="True" style="text;html=1;align=center;verticalAlign=middle;resizable=0;points=[];autosize=1;strokeColor=none;fillColor=none;fontSize=24;fontFamily=Times New Roman;fontColor=default;" vertex="1" parent="1">
          <mxGeometry x="3080" y="1540" width="70" height="40" as="geometry" />
        </mxCell>
        <mxCell id="NNry0I4TgSfYmMdXEbv9-95" style="edgeStyle=orthogonalEdgeStyle;rounded=0;orthogonalLoop=1;jettySize=auto;html=1;exitX=1;exitY=0.5;exitDx=0;exitDy=0;entryX=0;entryY=0.5;entryDx=0;entryDy=0;fontFamily=Times New Roman;fontSize=24;fontColor=default;" edge="1" parent="1" source="NNry0I4TgSfYmMdXEbv9-76" target="NNry0I4TgSfYmMdXEbv9-72">
          <mxGeometry relative="1" as="geometry">
            <Array as="points">
              <mxPoint x="3280" y="1680" />
              <mxPoint x="3280" y="2620" />
              <mxPoint x="2480" y="2620" />
              <mxPoint x="2480" y="1480" />
            </Array>
          </mxGeometry>
        </mxCell>
        <mxCell id="NNry0I4TgSfYmMdXEbv9-76" value="if (i != j){" style="rhombus;whiteSpace=wrap;html=1;strokeColor=default;align=center;verticalAlign=middle;fontFamily=Times New Roman;fontSize=24;fontColor=default;fillColor=default;" vertex="1" parent="1">
          <mxGeometry x="2965" y="1600" width="230" height="160" as="geometry" />
        </mxCell>
        <mxCell id="NNry0I4TgSfYmMdXEbv9-77" style="edgeStyle=orthogonalEdgeStyle;rounded=0;orthogonalLoop=1;jettySize=auto;html=1;exitX=0;exitY=0.5;exitDx=0;exitDy=0;entryX=0.5;entryY=0;entryDx=0;entryDy=0;fontFamily=Times New Roman;fontSize=24;fontColor=default;" edge="1" parent="1">
          <mxGeometry relative="1" as="geometry">
            <mxPoint x="2965" y="1680" as="sourcePoint" />
            <mxPoint x="2880" y="1800" as="targetPoint" />
          </mxGeometry>
        </mxCell>
        <mxCell id="NNry0I4TgSfYmMdXEbv9-80" style="edgeStyle=orthogonalEdgeStyle;rounded=0;orthogonalLoop=1;jettySize=auto;html=1;exitX=0.5;exitY=1;exitDx=0;exitDy=0;fontFamily=Times New Roman;fontSize=24;fontColor=default;" edge="1" parent="1" source="NNry0I4TgSfYmMdXEbv9-79">
          <mxGeometry relative="1" as="geometry">
            <mxPoint x="2880" y="1960" as="targetPoint" />
          </mxGeometry>
        </mxCell>
        <mxCell id="NNry0I4TgSfYmMdXEbv9-88" style="edgeStyle=orthogonalEdgeStyle;rounded=0;orthogonalLoop=1;jettySize=auto;html=1;exitX=0;exitY=0.5;exitDx=0;exitDy=0;fontFamily=Times New Roman;fontSize=24;fontColor=default;endArrow=none;endFill=0;startArrow=classic;startFill=1;" edge="1" parent="1" source="NNry0I4TgSfYmMdXEbv9-79">
          <mxGeometry relative="1" as="geometry">
            <mxPoint x="2880" y="2320" as="targetPoint" />
            <Array as="points">
              <mxPoint x="2560" y="1840" />
              <mxPoint x="2560" y="2400" />
              <mxPoint x="2880" y="2400" />
            </Array>
          </mxGeometry>
        </mxCell>
        <mxCell id="NNry0I4TgSfYmMdXEbv9-92" style="edgeStyle=orthogonalEdgeStyle;rounded=0;orthogonalLoop=1;jettySize=auto;html=1;exitX=1;exitY=0.5;exitDx=0;exitDy=0;entryX=0;entryY=0.5;entryDx=0;entryDy=0;fontFamily=Times New Roman;fontSize=24;fontColor=default;" edge="1" parent="1" source="NNry0I4TgSfYmMdXEbv9-79" target="NNry0I4TgSfYmMdXEbv9-72">
          <mxGeometry relative="1" as="geometry">
            <Array as="points">
              <mxPoint x="3200" y="1840" />
              <mxPoint x="3200" y="2510" />
              <mxPoint x="2520" y="2510" />
              <mxPoint x="2520" y="1480" />
            </Array>
          </mxGeometry>
        </mxCell>
        <mxCell id="NNry0I4TgSfYmMdXEbv9-79" value="for (int k = 0; k &amp;lt; n; k ++){" style="shape=hexagon;perimeter=hexagonPerimeter2;whiteSpace=wrap;html=1;fixedSize=1;strokeColor=default;align=center;verticalAlign=middle;fontFamily=Times New Roman;fontSize=24;fontColor=default;fillColor=default;" vertex="1" parent="1">
          <mxGeometry x="2740" y="1800" width="280" height="80" as="geometry" />
        </mxCell>
        <mxCell id="NNry0I4TgSfYmMdXEbv9-82" style="edgeStyle=orthogonalEdgeStyle;rounded=0;orthogonalLoop=1;jettySize=auto;html=1;exitX=0;exitY=0.5;exitDx=0;exitDy=0;fontFamily=Times New Roman;fontSize=24;fontColor=default;" edge="1" parent="1" source="NNry0I4TgSfYmMdXEbv9-81">
          <mxGeometry relative="1" as="geometry">
            <mxPoint x="2720" y="2160" as="targetPoint" />
          </mxGeometry>
        </mxCell>
        <mxCell id="NNry0I4TgSfYmMdXEbv9-86" style="edgeStyle=orthogonalEdgeStyle;rounded=0;orthogonalLoop=1;jettySize=auto;html=1;exitX=1;exitY=0.5;exitDx=0;exitDy=0;entryX=0.5;entryY=1;entryDx=0;entryDy=0;fontFamily=Times New Roman;fontSize=24;fontColor=default;endArrow=none;endFill=0;" edge="1" parent="1" source="NNry0I4TgSfYmMdXEbv9-81" target="NNry0I4TgSfYmMdXEbv9-85">
          <mxGeometry relative="1" as="geometry">
            <Array as="points">
              <mxPoint x="3120" y="2040" />
              <mxPoint x="3120" y="2320" />
              <mxPoint x="2720" y="2320" />
            </Array>
          </mxGeometry>
        </mxCell>
        <mxCell id="NNry0I4TgSfYmMdXEbv9-81" value="if (a[i][j] &amp;gt; a1[k]){" style="rhombus;whiteSpace=wrap;html=1;strokeColor=default;align=center;verticalAlign=middle;fontFamily=Times New Roman;fontSize=24;fontColor=default;fillColor=default;" vertex="1" parent="1">
          <mxGeometry x="2765" y="1960" width="230" height="160" as="geometry" />
        </mxCell>
        <mxCell id="NNry0I4TgSfYmMdXEbv9-83" value="True" style="text;html=1;align=center;verticalAlign=middle;resizable=0;points=[];autosize=1;strokeColor=none;fillColor=none;fontSize=24;fontFamily=Times New Roman;fontColor=default;" vertex="1" parent="1">
          <mxGeometry x="2710" y="2000" width="70" height="40" as="geometry" />
        </mxCell>
        <mxCell id="NNry0I4TgSfYmMdXEbv9-85" value="count ++;" style="rounded=0;whiteSpace=wrap;html=1;strokeColor=default;align=center;verticalAlign=middle;fontFamily=Times New Roman;fontSize=24;fontColor=default;fillColor=default;" vertex="1" parent="1">
          <mxGeometry x="2630" y="2160" width="180" height="70" as="geometry" />
        </mxCell>
        <mxCell id="NNry0I4TgSfYmMdXEbv9-87" value="False" style="text;html=1;align=center;verticalAlign=middle;resizable=0;points=[];autosize=1;strokeColor=none;fillColor=none;fontSize=24;fontFamily=Times New Roman;fontColor=default;" vertex="1" parent="1">
          <mxGeometry x="3020" y="2000" width="70" height="40" as="geometry" />
        </mxCell>
        <mxCell id="NNry0I4TgSfYmMdXEbv9-89" value="}" style="text;html=1;align=center;verticalAlign=middle;resizable=0;points=[];autosize=1;strokeColor=none;fillColor=none;fontSize=24;fontFamily=Times New Roman;fontColor=default;" vertex="1" parent="1">
          <mxGeometry x="2860" y="2270" width="40" height="40" as="geometry" />
        </mxCell>
        <mxCell id="NNry0I4TgSfYmMdXEbv9-90" value="}" style="text;html=1;align=center;verticalAlign=middle;resizable=0;points=[];autosize=1;strokeColor=none;fillColor=none;fontSize=24;fontFamily=Times New Roman;fontColor=default;" vertex="1" parent="1">
          <mxGeometry x="2875" y="2350" width="40" height="40" as="geometry" />
        </mxCell>
        <mxCell id="NNry0I4TgSfYmMdXEbv9-91" value="True" style="text;html=1;align=center;verticalAlign=middle;resizable=0;points=[];autosize=1;strokeColor=none;fillColor=none;fontSize=24;fontFamily=Times New Roman;fontColor=default;" vertex="1" parent="1">
          <mxGeometry x="2880" y="1900" width="70" height="40" as="geometry" />
        </mxCell>
        <mxCell id="NNry0I4TgSfYmMdXEbv9-93" value="False" style="text;html=1;align=center;verticalAlign=middle;resizable=0;points=[];autosize=1;strokeColor=none;fillColor=none;fontSize=24;fontFamily=Times New Roman;fontColor=default;" vertex="1" parent="1">
          <mxGeometry x="3060" y="1790" width="70" height="40" as="geometry" />
        </mxCell>
        <mxCell id="NNry0I4TgSfYmMdXEbv9-94" value="True" style="text;html=1;align=center;verticalAlign=middle;resizable=0;points=[];autosize=1;strokeColor=none;fillColor=none;fontSize=24;fontFamily=Times New Roman;fontColor=default;" vertex="1" parent="1">
          <mxGeometry x="2895" y="1625" width="70" height="40" as="geometry" />
        </mxCell>
        <mxCell id="NNry0I4TgSfYmMdXEbv9-96" value="False" style="text;html=1;align=center;verticalAlign=middle;resizable=0;points=[];autosize=1;strokeColor=none;fillColor=none;fontSize=24;fontFamily=Times New Roman;fontColor=default;" vertex="1" parent="1">
          <mxGeometry x="3200" y="1630" width="70" height="40" as="geometry" />
        </mxCell>
        <mxCell id="NNry0I4TgSfYmMdXEbv9-99" value="False" style="text;html=1;align=center;verticalAlign=middle;resizable=0;points=[];autosize=1;strokeColor=none;fillColor=none;fontSize=24;fontFamily=Times New Roman;fontColor=default;" vertex="1" parent="1">
          <mxGeometry x="3290" y="1430" width="70" height="40" as="geometry" />
        </mxCell>
        <mxCell id="NNry0I4TgSfYmMdXEbv9-100" value="}" style="text;html=1;align=center;verticalAlign=middle;resizable=0;points=[];autosize=1;strokeColor=none;fillColor=none;fontSize=24;fontFamily=Times New Roman;fontColor=default;" vertex="1" parent="1">
          <mxGeometry x="2875" y="2580" width="40" height="40" as="geometry" />
        </mxCell>
        <mxCell id="NNry0I4TgSfYmMdXEbv9-101" value="}" style="text;html=1;align=center;verticalAlign=middle;resizable=0;points=[];autosize=1;strokeColor=none;fillColor=none;fontSize=24;fontFamily=Times New Roman;fontColor=default;" vertex="1" parent="1">
          <mxGeometry x="2875" y="2690" width="40" height="40" as="geometry" />
        </mxCell>
        <mxCell id="NNry0I4TgSfYmMdXEbv9-104" style="edgeStyle=orthogonalEdgeStyle;rounded=0;orthogonalLoop=1;jettySize=auto;html=1;exitX=0.5;exitY=1;exitDx=0;exitDy=0;fontFamily=Times New Roman;fontSize=24;fontColor=default;" edge="1" parent="1" source="NNry0I4TgSfYmMdXEbv9-103">
          <mxGeometry relative="1" as="geometry">
            <mxPoint x="3840.1176470588234" y="1680" as="targetPoint" />
          </mxGeometry>
        </mxCell>
        <mxCell id="NNry0I4TgSfYmMdXEbv9-103" value="cout &amp;lt;&amp;lt; count;" style="shape=parallelogram;perimeter=parallelogramPerimeter;whiteSpace=wrap;html=1;fixedSize=1;strokeColor=default;align=center;verticalAlign=middle;fontFamily=Times New Roman;fontSize=24;fontColor=default;fillColor=default;" vertex="1" parent="1">
          <mxGeometry x="3710" y="1520" width="260" height="80" as="geometry" />
        </mxCell>
        <mxCell id="NNry0I4TgSfYmMdXEbv9-105" value="return 0;" style="rounded=0;whiteSpace=wrap;html=1;strokeColor=default;align=center;verticalAlign=middle;fontFamily=Times New Roman;fontSize=24;fontColor=default;fillColor=default;" vertex="1" parent="1">
          <mxGeometry x="3780" y="1680" width="120" height="60" as="geometry" />
        </mxCell>
        <mxCell id="NNry0I4TgSfYmMdXEbv9-106" value="}" style="text;html=1;align=center;verticalAlign=middle;resizable=0;points=[];autosize=1;strokeColor=none;fillColor=none;fontSize=24;fontFamily=Times New Roman;fontColor=default;" vertex="1" parent="1">
          <mxGeometry x="3840" y="1470" width="40" height="40" as="geometry" />
        </mxCell>
        <mxCell id="NNry0I4TgSfYmMdXEbv9-107" value="}" style="text;html=1;align=center;verticalAlign=middle;resizable=0;points=[];autosize=1;strokeColor=none;fillColor=none;fontSize=24;fontFamily=Times New Roman;fontColor=default;" vertex="1" parent="1">
          <mxGeometry x="3900" y="1690" width="40" height="40" as="geometry" />
        </mxCell>
      </root>
    </mxGraphModel>
  </diagram>
</mxfile>
